<?xml version="1.0" encoding="UTF-8"?> <svg xmlns="http://www.w3.org/2000/svg" id="a" version="1.1" viewBox="0 0 340.24 252.48"><defs><style> .st0 { fill: #151577; } </style></defs><path class="st0" d="M5.14,241.74c1.57.63,3.54.96,5.88.96,1.84,0,3.51-.33,4.97-.96,1.48-.65,2.61-1.54,3.39-2.7.79-1.15,1.19-2.37,1.19-3.7s-.36-2.49-1.08-3.51c-.72-1.01-1.83-1.85-3.34-2.51-1.02-.45-2.93-.97-5.71-1.57-2.79-.6-4.5-1.19-5.16-1.75-.68-.58-1.01-1.29-1.01-2.18,0-1.03.48-1.88,1.42-2.6.94-.74,2.53-1.09,4.52-1.09s3.49.4,4.51,1.19c1.01.8,1.62,1.97,1.79,3.52l3.27-.23c-.05-1.44-.47-2.73-1.26-3.88-.79-1.14-1.92-2-3.38-2.59s-3.15-.88-5.07-.88c-1.73,0-3.31.28-4.73.84-1.42.55-2.5,1.38-3.24,2.46-.75,1.07-1.11,2.23-1.11,3.48,0,1.12.3,2.14.91,3.06.6.9,1.52,1.67,2.76,2.29.95.48,2.61.99,4.98,1.53,2.38.55,3.91.94,4.61,1.2,1.07.39,1.85.87,2.32,1.45.48.57.71,1.25.71,2.02s-.24,1.46-.73,2.11c-.49.63-1.23,1.14-2.22,1.51-1.01.36-2.16.55-3.46.55-1.46,0-2.79-.25-3.96-.73-1.18-.49-2.04-1.13-2.6-1.92-.56-.8-.92-1.8-1.07-3.03l-3.22.27-.02.03c.04,1.64.52,3.12,1.41,4.42.91,1.3,2.14,2.29,3.73,2.94h0Z"></path><polygon class="st0" points="45.6 242.26 45.6 217.64 42.19 217.64 42.19 227.76 28.74 227.76 28.74 217.64 25.33 217.64 25.33 242.26 28.74 242.26 28.74 230.66 42.19 230.66 42.19 242.26 45.6 242.26"></polygon><rect class="st0" x="51.84" y="217.64" width="3.42" height="24.62"></rect><path class="st0" d="M78.13,219.02c-.86-.56-1.92-.94-3.19-1.14-.9-.15-2.23-.24-3.94-.24h-9.74v24.62h.02l3.41-.01v-10.02h6.63c3.65,0,6.18-.71,7.58-2.16,1.4-1.46,2.09-3.23,2.09-5.32,0-1.22-.26-2.33-.78-3.35-.53-1.01-1.22-1.81-2.08-2.38h0ZM76.08,228.17c-.94.79-2.51,1.18-4.72,1.18h-6.68v-8.8h6.62c1.54,0,2.62.08,3.19.22.89.23,1.62.72,2.15,1.45.55.73.83,1.61.83,2.64,0,1.43-.48,2.53-1.39,3.31h0Z"></path><path class="st0" d="M109.86,242.26v-24.62h-4.59l-6.19,17.13c-.64,1.73-1.09,3.05-1.38,3.94-.27-.8-.68-2.01-1.23-3.64l-6.12-17.43h-5.14v24.62h3.28v-20.96l7.49,20.96h3.08l7.51-20.61v20.61h3.29Z"></path><path class="st0" d="M112.5,242.26h3.65l2.82-7.46h10.82l3.01,7.46h3.9l-10.58-24.62h-3.69s-9.93,24.62-9.93,24.62ZM124.2,220.24c.39,1.32,1.01,3.03,1.84,5.1l2.7,6.81h-8.78l2.84-7.21c.6-1.56,1.06-3.13,1.4-4.7Z"></path><polygon class="st0" points="142.87 217.64 139.36 217.64 139.36 242.26 142.65 242.26 142.65 222.91 156.21 242.26 159.72 242.26 159.72 217.64 156.44 217.64 156.44 236.97 142.87 217.64"></polygon><path class="st0" d="M162.6,242.26h3.62l2.84-7.46h10.81l3.01,7.46h3.9l-10.58-24.62h-3.69l-9.91,24.62h0ZM174.29,220.24c.4,1.32,1.01,3.03,1.83,5.1l2.7,6.81h-8.77l2.85-7.21c.6-1.56,1.07-3.13,1.39-4.7Z"></path><path class="st0" d="M194.73,222.47c.72-.73,1.63-1.33,2.77-1.78s2.49-.68,4.06-.68c1.31,0,2.49.22,3.56.65,1.06.43,1.89,1,2.47,1.72.57.72,1.06,1.71,1.45,2.96l3.08-.8c-.45-1.66-1.1-3.01-1.95-4.03-.86-1.04-2.05-1.83-3.57-2.42-1.5-.57-3.19-.86-5.05-.86-2.58,0-4.85.51-6.83,1.51-1.97,1.01-3.48,2.55-4.54,4.62-1.05,2.08-1.58,4.29-1.58,6.71s.53,4.61,1.58,6.57c1.07,1.95,2.64,3.46,4.71,4.49s4.39,1.55,6.92,1.55c1.87,0,3.71-.33,5.51-.96,1.78-.64,3.5-1.61,5.19-2.88v-9.13l-10.94.02v2.87h7.58v4.58c-.72.62-1.79,1.2-3.2,1.74-1.41.55-2.87.82-4.34.82-1.71,0-3.32-.36-4.83-1.08-1.52-.72-2.68-1.81-3.47-3.28-.8-1.49-1.18-3.33-1.18-5.51,0-1.78.33-3.43.98-4.96.38-.88.93-1.7,1.62-2.44h0Z"></path><polygon class="st0" points="201.57 232.61 201.57 232.6 201.56 232.6 201.57 232.61"></polygon><polygon class="st0" points="236.28 220.55 236.28 217.64 217.59 217.64 217.59 242.26 236.89 242.26 236.89 239.35 221.01 239.35 221.01 230.98 235.31 230.98 235.31 228.09 221.01 228.09 221.01 220.55 236.28 220.55"></polygon><polygon class="st0" points="241.46 242.26 241.46 242.26 241.46 242.26 241.46 242.26"></polygon><path class="st0" d="M266.13,242.26v-24.62h-4.61l-6.18,17.13c-.63,1.73-1.09,3.05-1.38,3.94-.26-.8-.67-2.01-1.24-3.64l-6.11-17.43h-5.15v24.62h3.3v-20.96l7.48,20.96h3.08l7.51-20.61v20.61h3.3Z"></path><polygon class="st0" points="290.37 220.55 290.37 217.64 271.68 217.64 271.68 242.26 290.97 242.26 290.97 239.35 275.1 239.35 275.1 230.98 289.4 230.98 289.4 228.09 275.1 228.09 275.1 220.55 290.37 220.55"></polygon><polygon class="st0" points="299.13 217.64 295.62 217.64 295.62 242.26 298.9 242.26 298.9 222.91 312.48 242.26 315.98 242.26 315.98 217.64 312.7 217.64 312.7 236.97 299.13 217.64"></polygon><polygon class="st0" points="319.76 217.64 319.76 220.55 328.27 220.55 328.27 242.26 331.68 242.26 331.68 220.55 340.24 220.55 340.24 217.64 319.76 217.64"></polygon><path class="st0" d="M201.89,88.38c-.87-11.09-2.5-22.72-3.91-33.78,3.95,4.63,7.38,9.83,11.26,14.54,2.33-4.6,4.06-9.81,6.25-14.54,2.66,10.96,4.52,22.71,6.58,34.25,2.89.56,4.57,1.91,7.5,2.67-1.04-18.61-5.92-35.97-10.63-51.94-1.92.79-4.15,1.27-6.41,1.72h0c-.78,5.6-2.61,11.46-4.38,16.58-5.17-5.84-9.57-12.43-14.86-18.15-2.23.02-4.63-.14-6.42.32,3.78,15.62,4.91,33.26,6.27,50.21,3.14-.39,5.72-1.36,8.75-1.88h0Z"></path><path class="st0" d="M79.88,12.05c.57,2.16.1,5.09.15,7.68.05,2.66.17,5.25.32,7.66v2.19c.22,8.7.52,17.31.63,26.12.35.23.06,1.1.16,1.57-.04,5.61.44,10.71.31,16.43.37.42.06,1.51.16,2.19.23,4.56.12,9.47.47,13.92v1.56c-.05,3.81.22,7.3.31,10.96v2.5c.17,6.18.44,12.28.47,18.62.36.26.06,1.19.15,1.71,2.33.08,4.57.25,7.05.16-.18-2.49-.41-5.73-.31-7.98,3.16-.88,7.38-1.56,10.94-2.98,3.49-1.38,7.05-3.81,11.27-5.16,5.31-1.71,17.46-4.02,19.86,1.1.77,1.64.37,4.52,1.1,5.78,1.72,3.03,6.51,2.59,10.79,1.88,4.24-.71,6.73-1.91,9.85-3.29,3.99-1.75,8.28-4.21,12.67-5.16,4.99-1.08,13.79-1.31,15.96,2.36.92,1.53.61,4.16,2.19,4.53,1.3.32,3.28-1.53,4.54-2.19,6.91-3.54,17.01-5.8,26.59-5.16,9.81.66,16.42,5.57,21.9,10.8,3.47-8.33,6.86-17.24,6.73-28-.13-10.55-3.8-20.06-6.41-28.47l-.02-.02c-1.34-4.33-2.7-8.8-4.07-13.3-1.37-4.53-2.95-8.99-3.75-13.77-1.72-10.1-1.46-21.61,2.5-30.2-3.77,2.85-8.74,5.49-13.92,8.3-5.76,3.12-11.53,7.87-20.19,6.72-5.12-.67-8.43-5.8-14.24-6.1-6.27-.32-9.76,3.91-13.45,7.04-2.67-5.63-8.14-9.34-16.12-8.76-6.44.47-13.67,4-19.23,6.11-2.24.84-4.56,2.03-6.42,2.19-5.37.48-6.24-3.87-8.92-5.63-1.9-1.26-4.22-1.29-7.5-1.71h-7.5c-3.68.16-6.97.46-10.17,1.1-3.08.61-5.98,2.05-8.92,1.72-.61-.22-.18-1.49-.31-2.2v-3.6C90.46,8.07,88.11-.12,82.38,0c-4.03.09-7.1,4.33-5.48,8.14.7,1.64,2.57,2.41,2.98,3.91ZM183.56,107.26c.23.25.68.31.79-.06.02,0,.04.01.06.01-.1.44-.63.36-.85.05h0ZM175.67,26.78c1.71-3.1,5.66-6.58,11.26-5.17,4.37,1.11,6.84,4.83,11.89,5.32.98.09,2.07.06,2.96,0,10.46-.7,17.87-6.06,25.35-10.64.26-.05.3.12.31.31-1.6,13.36,2,25.66,5.32,36.14,2.5,7.92,5.76,15.93,7.67,24.1,2.52,10.92,3.17,27.46-2.19,36.76-6.57-6.68-17.11-12.24-31.27-10.94-7.06.65-13.58,3.07-19.09,5.48-.79-.15-1.3-.59-2.19-.64.67-.62,2.07-.51,2.97-.93-.82-.39-1.54-.86-2.5-1.09.65-.51,1.77-.53,2.66-.79-.56-.68-1.67-.83-2.5-1.25.84-.35,1.92-.47,2.81-.78-.55-.64-1.56-.83-2.5-1.09.49-.67,1.88-.42,2.5-.94-.73-.51-1.63-.88-2.66-1.1.63-.52,1.76-.54,2.66-.79-.81-.53-1.69-1.02-2.81-1.25.87-.38,1.89-.61,2.97-.78-.75-.55-1.69-.93-2.66-1.25.74-.42,1.8-.49,2.66-.78-.8-.46-1.55-.96-2.66-1.11.6-.53,1.7-.58,2.66-.78-.44-.8-1.6-.91-2.51-1.24.63-.52,1.76-.55,2.67-.79-.76-.59-1.79-.92-2.82-1.25.7-.34,1.57-.51,2.5-.63-.56-.69-1.42-1.07-2.5-1.25.52-.52,1.65-.44,2.34-.78-.54-.81-2.06-.65-2.66-1.41,1.08,0,1.89-.3,2.66-.62-.63-.53-1.47-.84-2.34-1.1.55-.49,1.57-.51,2.34-.78-.63-.74-1.85-.85-2.82-1.25.69-.35,1.53-.55,2.5-.62-.58-.79-1.68-1.04-2.81-1.26.6-.49,1.65-.53,2.5-.78-.48-.83-1.66-.94-2.66-1.25.77-.37,1.77-.53,2.66-.79-.7-.66-1.85-.86-2.82-1.25.73-.31,1.6-.49,2.5-.63-.49-.8-1.69-.91-2.65-1.25.65-.45,1.72-.48,2.5-.79-.6-.75-2.04-.68-2.66-1.41.94,0,1.48-.4,2.35-.46-.69-.62-1.69-.92-2.66-1.26.74-.26,1.5-.48,2.35-.62-.52-.79-1.71-.9-2.66-1.26.67-.42,1.67-.52,2.51-.77-.55-.75-2.04-.58-2.51-1.41.9.02,1.4-.37,2.19-.47-.61-.7-1.81-.79-2.66-1.25.69-.26,1.34-.55,2.2-.63-.44-.81-1.64-.88-2.51-1.25.59-.4,1.44-.55,2.35-.63-.37-.93-1.95-.65-2.35-1.56.84,0,1.29-.38,2.04-.46-.72-.65-1.84-.88-2.82-1.26.62-.38,1.61-.38,2.19-.78-.76-.55-1.69-.92-2.82-1.1.63-.42,1.72-.37,2.35-.79-.69-.51-1.52-.88-2.51-1.09.52-.54,1.63-.46,2.35-.78-.7-.66-1.84-.87-2.81-1.25.66-.32,1.56-.42,2.34-.62-.56-.75-1.55-1.05-2.66-1.25.51-.38,1.23-.53,2.04-.62-.54-.72-1.74-.77-2.51-1.26.55-.38,1.3-.58,2.2-.62-.45-.91-2.01-.7-2.51-1.57.86.13,1.07-.39,1.88-.31-.44-.92-1.99-.73-2.5-1.57.81-.03,1.27-.41,2.03-.46-.6-.77-1.72-1-2.82-1.26.56-.37,1.41-.45,2.19-.62-.71-.65-1.83-.88-2.82-1.25.56-.48,1.69-.4,2.34-.79-.73-.48-1.56-.83-2.51-1.08.32-.47,1.13-.45,1.74-.64-.48-.82-1.66-.94-2.66-1.25.65-.38,1.51-.56,2.33-.78-.8-.61-1.88-.93-2.97-1.25.58-.38,1.45-.43,2.2-.63-.71-.65-1.78-.93-2.81-1.25.57-.37,1.45-.42,2.18-.62-.53-.71-1.68-.82-2.5-1.25.55-.34,1.32-.46,2.04-.63-.65-.55-1.53-.87-2.51-1.09.39-.39,1.16-.4,1.72-.63-.65-.65-1.71-.9-2.66-1.25.64-.25,1.32-.46,2.04-.63-.26-.27-.58-.46-.94-.62h0ZM180.69,54.79h-.01c-.83,0-1.27.41-1.88.63.58.57,1.47.83,2.36,1.1-.62.32-1.23.65-2.04.78.65.55,1.53.87,2.5,1.09-1.44,1.08-3.02-.5-4.53-1.09-4.51-1.78-10.73-2-16.27-.47-.61-4.86-1.59-9.35-2.03-14.39,2.79-.7,6.51-1.47,9.86-1.1,4.77.53,7.66,3.21,7.67,8.6,1.79.82,2,2.28,4.22,2.66-.46.43-1.25.51-1.88.79.22.92,1.68.6,2.03,1.4ZM132.19,27.72c7.33-2.46,14.64-7.19,23.62-8.29,7.66-.94,13.32,2.03,16.27,7.04-.63,0-.75.5-1.41.47.38.78,1.5.79,2.19,1.25-.41.33-.99.47-1.57.63.42.68,1.29.9,2.19,1.09-.35.43-1.1.46-1.56.78.59.45,1.32.78,2.2.94-.23.56-1.02.56-1.57.79.45.63,1.21.95,2.19,1.09-.28.5-.92.65-1.57.77.44.82,1.59.93,2.51,1.26-.47.42-1.35.42-1.88.78.66.48,1.54.75,2.35,1.1-1.37.88-2.39-1.02-3.75-1.41-2.47-.69-7.39-.92-10.8-.62-4.93.42-9.72,2.04-12.2,4.06,1.77,8.72,3.28,17.69,4.69,26.75,5.38-3.37,15.68-5.46,22.53-2.03.93,4.97.56,12.05.63,17.36-5.23-1.76-11.29,0-16.58.63-.39-2.06-.26-4.66-.79-6.57-2.21.19-3.47,1.32-5.47,1.71.1,4.7-.21,9.81.15,14.25,7.72-3.26,23.07-6.72,30.2,0-.22.51-1.02.44-1.41.78.63.51,1.43.87,2.34,1.1-.79.36-1.77.52-2.5.94.54.5,1.38.69,2.03,1.1-.55.4-1.35.52-2.03.78.49.6,1.27.91,2.19,1.1-.61.48-1.49.7-2.35.93.55.54,1.29.89,2.19,1.1h-.02c-.58.48-1.43.66-2.19.94.51.58,1.5.69,2.19,1.11-.51.42-1.29.59-2.03.78.36.72,1.32.87,2.19,1.1-.7.5-1.75.64-2.65.93.51.57,1.33.85,2.18,1.1-.62.31-1.4.47-2.04.77-2.54-2.17-5.92-3.63-10.47-3.43-12.04.5-20.33,7.92-31.61,9.54-.72-.59-1.62-.98-2.66-1.25.61-.54,1.76-.54,2.66-.79-.61-.64-1.48-1.02-2.5-1.25.84-.4,2.1-.39,2.97-.78-.62-.64-1.81-.68-2.35-1.41,1.14.09,1.73-.37,2.66-.47-.59-.6-1.48-.91-2.34-1.25.76-.32,1.71-.48,2.66-.63-.31-.94-1.62-.89-2.35-1.4.67-.38,1.6-.49,2.51-.63-.5-.87-1.94-.77-2.51-1.56,1.05,0,1.8-.3,2.66-.47-.76-.54-1.61-.99-2.66-1.25.69-.52,1.95-.46,2.82-.78-.76-.55-1.55-1.05-2.67-1.25.72-.37,1.81-.38,2.67-.62.28-.25-.67-.58-.94-.78.4-.59,1.23-.76,1.56-1.4.06-3.43.24-6.75.15-10.33-.71.51-1.77-.34-2.97-.62.64-.41,1.58-.51,2.51-.64-.63-.73-1.74-.97-2.67-1.4.71-.34,1.69-.39,2.51-.63-.6-.6-1.5-.9-2.35-1.25.48-.47,1.36-.52,2.2-.63-.5-.86-1.58-1.13-2.67-1.42.64-.46,1.78-.4,2.67-.61-.69-.69-1.71-1.01-2.67-1.42.74-.29,1.72-.36,2.5-.62-.64-.61-1.54-.95-2.5-1.25.63-.37,1.59-.4,2.35-.63-.67-.59-1.44-1.06-2.51-1.25.36-.57,1.47-.4,2.19-.62-.36-.88-1.48-1.02-2.34-1.41.53-.46,1.64-.34,2.34-.63-.6-.7-1.88-.72-2.34-1.56.94.15,1.2-.37,2.04-.32-.43-.86-1.81-.79-2.34-1.57.99.16,1.25-.42,2.19-.31-.48-.83-1.57-1.04-2.5-1.41.72-.33,1.69-.39,2.5-.62-.72-.59-1.66-.96-2.66-1.25.44-.56,1.61-.39,2.19-.8-.69-.54-1.54-.96-2.5-1.24.57-.42,1.52-.46,2.34-.62-.88-.49-1.69-1.03-2.81-1.25,1.55-.53,2.41-.83,3.44-1.72-.28-4.99-1.26-9.28-1.88-13.92-1.78.16-3.07,1.04-4.68.15.6-.5,1.78-.42,2.5-.79-.79-.52-1.64-.97-2.67-1.25.42-.42,1.41-.26,1.88-.63-.66-.62-1.71-.88-2.65-1.25.73-.31,1.6-.49,2.5-.63-.81-.59-1.79-1.02-2.81-1.41.61-.2,1.19-.47,2.03-.47-.42-.88-1.56-1.06-2.5-1.4.45-.44,1.4-.36,2.03-.63-.63-.62-1.54-.97-2.5-1.25.37-.52,1.44-.32,2.03-.63-.66-.54-1.55-.84-2.34-1.25.51-.22,1.11-.36,1.72-.47-.53-.82-1.85-.87-2.5-1.56.79,0,1.23-.32,2.04-.32-.23-.45-.86-.5-1.26-.79h0ZM137.94,84.68c-.15.58-.31,1.16-1.09,1.1.72.9-.73,1.85-.94,2.82-.33-8.58-7.06-10.77-15.01-11.74.47-11.89-2.01-23.64-3.91-34.57,7.98-2.64,13.82,2.57,16.27,7.97-.1.35.44.51-.16.47.5.39.91.85,1.09,1.56.07.34-.21.3-.46.32.42.41.92.75,1.1,1.41h-.03c.04.55-.68.34-.94.62.4.53,1.38.5,1.57,1.25-.09.55-.85.42-1.26.63.45.65,1.32.88,2.03,1.25-.38.45-1.25.42-1.72.79.53.62,1.5.8,2.2,1.25-.53.3-1.31.36-1.87.62.6.59,1.4,1,2.34,1.25-.49.45-1.48.39-2.03.78.61.47,1.31.88,2.2,1.1-.48.47-1.4.49-2.04.78.52.58,1.23.96,2.18,1.09-.37.51-1.19.58-1.87.79.37.72,1.32.86,2.03,1.25-.58.31-1.32.46-1.88.78.6.48,1.25.95,2.19,1.11-.63.35-1.44.54-2.19.78.42.72,1.7.6,2.03,1.41-.67.05-1.04.42-1.72.46.35.74,1.34.85,2.04,1.25-.41.42-1.17.5-1.88.63.33.87,1.64.77,2.04,1.55-.84,0-1.3.39-2.04.48.56.59,1.37.93,2.2,1.25-.56.4-1.37.52-2.05.79.59.57,1.47.83,2.2,1.25-.58.38-1.44.43-2.03.78.6.49,1.25.93,2.19,1.1-.44.49-1.33.54-2.03.78.41.74,1.39.89,2.18,1.25-.54.44-1.41.56-2.18.78.22.46.87.49,1.25.78h0ZM115.41,20.69c4.73.37,9.27,2.2,10.64,6.1,1.48.67,1.73,1.77,3.59,2.18-.35.5-1.26.42-1.72.78.58.46,1.3.79,2.03,1.1-.37.3-.97.4-1.41.63.59.45,1.18.9,2.03,1.09-.16.62-1.14.42-1.57.78.63.48,1.26.93,2.21,1.1-.31.54-1.15.52-1.73.78.6.64,1.53.96,2.5,1.25-.46.42-1.34.43-1.88.79.53.68,1.78.62,2.2,1.41-.88-.09-1.1.47-1.89.47.64.56,1.42,1,2.36,1.25-.51.28-1.04.52-1.72.63.55.64,1.47.93,2.35,1.25-2.49.68-2.95-1.79-4.07-3.29-4.24-5.67-15.6-4.41-22.21-2.04,4.68,13.59,5.49,31.93,5.46,48.66,2.06-.58,3.88-1.75,5.96-2.04,7.18-1.01,12.47,2.83,15.47,6.41.42,2.98-.36,7.15,2.82,7.36-1.25.81,1.28.83,1.41,1.72-.85-.02-1.18.49-2.04.47.18.97,1.59.71,1.88,1.56-.85-.07-1.23.33-1.88.48.31.78,1.3.88,2.04,1.24-.74.32-1.56.54-2.36.79.51.54,1.26.84,2.04,1.09-.57.48-1.51.57-2.34.79.29.79,1.35.82,2.02,1.25-.71.38-1.75.44-2.48.76.55.56,1.25.93,2.2,1.1-.65.51-1.87.43-2.51.93.46.59,1.32.76,2.03,1.11-.59.4-1.5.46-2.18.78-1.13-3.08-1.7-6.09-3.77-7.98-2.27-2.1-6.96-3.1-11.1-2.97-10.26.32-17.56,6.47-25.66,8.76,6.37-11.01,7.32-29.29,6.41-46.78-.12-2.52-.44-5.15-.93-7.5-2.35-11.27-6.17-21.45-10.18-30.04,6.25-2.13,16.73-4.96,25.98-4.21ZM88.96,26.15c3.55,8.12,6.54,16.48,8.75,26.44,2.41,10.8,2.55,27.25.79,39.27-.6,4.06-1.51,7.83-2.81,11.26-1.25,3.3-2.61,6.6-5.16,8.76h-.01c-1.3-17.79-2.15-36.04-2.97-54.29-.36-.22-.06-1.09-.16-1.57-.29-11.38-1.19-22.99-1.09-34.26,1.3,1.03,1.98,2.84,2.66,4.39Z"></path><path class="st0" d="M28.2,187.99h.01c1.95-.01,4.06-.22,6.47-.64,2.33-.39,4.49-1,6.41-1.83l.08-.04,2.01-8.38.05-.22h-1.84l-.71,1.69c-.4.99-.79,1.74-1.21,2.31-.41.58-.98,1.18-1.68,1.77-1.28,1.06-2.61,1.85-3.97,2.35-1.36.51-2.9.76-4.7.76-5.33,0-9.44-1.76-12.2-5.23-2.48-3.09-3.73-7.23-3.73-12.28,0-5.41,1.08-9.84,3.2-13.17,2.57-4.06,6.55-6.12,11.81-6.12,2.94,0,5.44.64,7.43,1.91,1.97,1.27,3.19,3.08,3.61,5.38l.41,2.17h1.78v-8.74l-.08-.05c-1.76-1.2-4.1-2.05-6.95-2.51-1.78-.31-3.87-.46-6.2-.46-6.19,0-11.47,2.1-15.67,6.24-4.19,4.14-6.32,9.55-6.32,15.36s1.9,10.56,5.64,14.1c3.93,3.73,9.43,5.63,16.35,5.63h0Z"></path><path class="st0" d="M69.09,188.2c5.58,0,10.5-2.15,14.63-6.41,4.11-4.26,6.2-9.28,6.2-14.91,0-6.12-2-11.1-5.95-14.83-3.81-3.57-8.67-5.38-14.46-5.38-5.25,0-9.98,2.06-14.05,6.12-4.26,4.25-6.41,9.33-6.41,15.24s2.12,10.87,6.29,14.74c3.9,3.6,8.52,5.43,13.75,5.43h0ZM68.96,148.84h0c4.42-.01,8.01,1.98,10.67,5.91,2.31,3.39,3.48,7.38,3.48,11.87,0,5.94-1.08,10.59-3.23,13.85-2.29,3.49-5.78,5.25-10.37,5.25-3.77,0-7.05-1.95-9.73-5.79-2.56-3.67-3.85-7.92-3.85-12.65,0-5.43,1.09-9.86,3.23-13.15,2.3-3.51,5.6-5.29,9.8-5.29h0Z"></path><path class="st0" d="M101.12,183.2c-.08.6-.24,1.04-.46,1.28-.26.26-.53.43-.88.53-.33.09-.74.17-1.41.28l-2.06.26v1.74h28.27l.04.02,1.76-10.55-1.76-.06-.91,2.56c-.28.68-.64,1.4-1.11,2.2-.68,1.11-1.37,1.89-2.13,2.38-.78.52-1.53.84-2.24.98-.74.16-1.65.23-2.78.23h-3.96c-1.6,0-2.77-.35-3.48-1.03-.4-.38-.62-.75-.72-1.17-.1-.4-.15-1.01-.15-1.91v-29.12c0-.28.03-.57.08-.86.05-.24.17-.52.36-.81.21-.3.47-.5.81-.62.35-.15.79-.22,1.31-.22l2.24-.14v-1.88h-15.62v1.88l1.87.14c.6,0,1.12.09,1.56.26.46.17.81.42,1.04.74.17.23.29.44.34.66.06.2.08.43.08.75v29.46c0,.67-.03,1.33-.09,2.02Z"></path><path class="st0" d="M141.96,184.18c2.84,2.53,6.7,3.81,11.46,3.81h.01c4.52.01,8.25-1.5,11.1-4.49s4.29-6.69,4.29-11.01v-18.92c0-.45.08-1,.24-1.63.15-.62.39-1.14.73-1.54.46-.51.93-.83,1.41-.98.5-.15,1.18-.23,2.01-.23h.84v-1.9h-13.74v1.9h.96c.71,0,1.31.07,1.78.21.48.15.95.43,1.39.85.46.42.75.88.88,1.35.15.5.22,1.14.22,1.91v18.99c0,3.41-1.04,6.34-3.08,8.68-2.16,2.45-5.1,3.69-8.55,3.69s-6.12-1.13-7.95-3.36c-1.62-1.98-2.44-4.6-2.44-7.78v-21.93c0-.31.03-.6.09-.86.04-.25.13-.47.3-.69.24-.35.54-.61.87-.74.33-.15.76-.22,1.31-.22l2.23-.14v-1.88h-15.56v1.88l1.87.14c.58,0,1.1.08,1.54.24.46.19.8.44,1.04.76.18.22.29.44.35.65.05.24.07.49.07.76v22.12c0,4.35,1.46,7.84,4.33,10.36h0Z"></path><path class="st0" d="M223.93,152.68c.15-.73.46-1.43.94-2.07.3-.41.74-.77,1.34-1.09.57-.31,1.17-.46,1.82-.46h1.24v-1.81h-9.81l-16.36,31.62-15.13-31.51-.05-.1h-10.72v1.81h.18c.65,0,1.24.1,1.81.31.58.24,1.2.58,1.84,1.02,1.14.75,2.02,1.77,2.6,3.03v27.23c0,.8-.04,1.41-.14,1.85-.09.45-.32.9-.69,1.34-.82,1.11-1.97,1.66-3.39,1.66h-1.01v1.77h13.22v-1.77h-.76c-1.87,0-3.16-.69-3.94-2.13-.3-.53-.45-1-.46-1.43-.03-.44-.03-.84-.03-1.2l-.04-23.66,14.53,30.28.05.11v-.02l1.09-.03,15.74-30.13v25.41c0,.86-.23,1.5-.69,1.89-.7.6-1.63.91-2.76.91h-1.25v1.77h15.47v-1.75l-2.05-.27c-.47-.06-.89-.13-1.3-.21-.37-.06-.67-.25-.93-.57-.28-.36-.43-.61-.48-.8-.07-.23-.1-.58-.1-1.01v-27.28c0-1.03.07-1.94.22-2.71h0Z"></path><path class="st0" d="M235.86,149.15h1.88c.56,0,1.08.08,1.53.24.41.16.77.43,1.05.81.29.41.43.86.43,1.4v30.38c0,.57-.05,1.05-.15,1.43-.07.34-.23.67-.47.94-.32.37-.61.6-.86.69-.28.11-.75.21-1.34.28l-2.24.23v1.74h16.92v-.02c3.83,0,7.03-.98,9.54-2.92,2.79-2.15,4.21-5.2,4.21-9.07,0-2.73-.92-4.95-2.72-6.58-1.5-1.34-3.58-2.27-6.38-2.84l-1.23-.25.72-.32c2.13-.87,3.85-2.11,5.1-3.69,1.28-1.59,1.93-3.45,1.93-5.52,0-.14-.01-.32-.03-.53-.01-.24-.03-.49-.06-.73-.34-2.66-1.64-4.66-3.86-5.95-1.83-1.06-4.24-1.6-7.17-1.6h-16.8v1.88h0ZM257.25,154.02c.36,1.09.54,2.24.54,3.55s-.24,2.56-.7,3.71c-.46,1.12-1.13,2.01-2.01,2.64-.74.53-1.54.92-2.45,1.17-.88.25-1.74.37-2.55.37h-3.53v-16h3.87c1.2,0,2.23.14,3.07.43.84.27,1.62.77,2.36,1.53.6.65,1.07,1.52,1.4,2.6ZM257.83,182.52c-1.09,1.64-2.55,2.47-4.35,2.47h-2.43c-.74,0-1.36-.06-1.89-.18-.56-.14-1.03-.37-1.41-.67-.6-.56-.98-1.21-1.14-2-.05-.3-.08-1.15-.08-2.54l.04-12.04h-.01,4.75c.62,0,1.54.18,2.73.54,1.14.36,2.08.89,2.78,1.56.88.86,1.56,1.91,2.01,3.13.44,1.24.67,2.53.67,3.84,0,2.25-.56,4.23-1.67,5.9v-.01Z"></path><path class="st0" d="M291.1,187.29v-1.72l-1.3-.24c-.42-.04-.84-.1-1.28-.16l-.32-.04c-.51-.08-.91-.24-1.24-.51-.31-.23-.5-.48-.59-.76-.1-.29-.15-.66-.15-1.12v-30.93c0-.28.03-.57.09-.86.06-.27.15-.49.31-.69.25-.36.54-.6.89-.74.33-.15.76-.22,1.32-.22l2.26-.14v-1.87h-15.82v1.87l1.9.15c.6,0,1.13.09,1.58.26.45.17.8.41,1.05.74.19.24.3.46.35.66.06.21.09.45.09.75v30.98c0,.71-.15,1.27-.45,1.67-.3.39-.59.61-.85.68-.3.07-.83.15-1.54.24l-2.13.27v1.73h15.83Z"></path><path class="st0" d="M306.69,185.53h-.18c-.75,0-1.46-.29-2.11-.86-.44-.43-.65-1.04-.65-1.85,0-.56.1-1.06.29-1.51l2.55-7.19h14.18l2.68,8.08s.03.1.06.19c.02.07.05.15.08.24v.63c0,.72-.17,1.2-.51,1.48-.6.54-1.26.79-2.03.79h-.93v1.76h13.53v-1.76h-.64c-.3,0-.56-.05-.81-.16-.25-.09-.52-.25-.82-.48-.77-.53-1.31-1.3-1.63-2.3l-12.27-35.81-.04-.12h-3.56l-12.89,34.07c-.32.9-.66,1.67-1.01,2.31-.34.6-.81,1.15-1.39,1.63-.54.46-1.23.75-2.03.87l-.66.09v1.66h10.79v-1.76h0ZM307.42,171.7l6.87-17.94,5.64,17.94h-12.51Z"></path><rect class="st0" x=".63" y="252.16" width="338.73" height=".32"></rect><rect class="st0" x=".63" y="207.52" width="338.73" height=".32"></rect></svg> 