<?xml version="1.0" encoding="utf-8"?>
<!-- Generator: Adobe Illustrator 23.0.1, SVG Export Plug-In . SVG Version: 6.00 Build 0)  -->
<svg version="1.1" id="Livello_1" xmlns="http://www.w3.org/2000/svg" xmlns:xlink="http://www.w3.org/1999/xlink" x="0px" y="0px"
	 width="500px" height="126.78px" viewBox="0 0 500 126.78" enable-background="new 0 0 500 126.78" xml:space="preserve">
<g>
	<path fill="#33394F" d="M37.451,121.468V91.675c-7.64-6.96-12.484-17.039-12.484-28.297s4.844-21.324,12.484-28.297V5.312
		C15.417,15.1,0,37.4,0,63.39S15.417,111.681,37.451,121.468z"/>
	<path fill="#33394F" d="M174.769,1.267v26.294c14.531,5.223,24.968,19.271,24.968,35.828S189.3,93.981,174.769,99.217v26.294
		c28.488-5.87,49.935-31.454,49.935-62.122S203.257,7.149,174.769,1.267z"/>
	<path fill="#33394F" d="M162.285,101.31V25.47C150.9,10.041,132.799,0,112.351,0C77.884,0,49.934,28.386,49.934,63.39
		s27.95,63.39,62.417,63.39C132.799,126.78,150.9,116.739,162.285,101.31z M112.351,101.424c-20.685,0-37.451-17.027-37.451-38.034
		s16.765-38.034,37.451-38.034c20.685,0,37.451,17.027,37.451,38.034S133.036,101.424,112.351,101.424z"/>
	<path fill="#33394F" d="M249.87,12.653h65.726v19.118h-45.751v21.756h40.969v19.118h-40.969v22.351h46.476v19.118H249.87V12.653z"
		/>
	<path fill="#33394F" d="M328.767,12.653h48.348c14.906,0,26.351,10.878,26.351,25.876c0,9.407-4.78,17.787-11.287,21.616
		c9.851,3.524,16.656,14.263,16.656,26.459c0,16.025-12.009,27.499-27.939,27.499h-52.119V12.653H328.767z M348.165,30.884v22.351
		h23.882c6.079,0,10.998-4.856,10.998-11.169c0-6.314-4.783-11.169-10.998-11.169h-23.882V30.884z M348.165,70.439v25.432h27.803
		c7.09,0,12.443-5.591,12.443-12.792c0-7.201-5.353-12.64-12.443-12.64H348.165z"/>
	<path fill="#33394F" d="M417.212,74.851V12.653h19.974v61.894c0,12.348,9.122,21.756,21.42,21.756
		c12.298,0,21.423-9.407,21.423-21.756V12.653H500v62.186c0,23.378-17.8,41.013-41.407,41.013
		c-23.607,0-41.406-17.648-41.406-41.013L417.212,74.851z"/>
</g>
</svg>
