<svg width="40" height="40" viewBox="0 0 40 40" fill="none" xmlns="http://www.w3.org/2000/svg" role="img" aria-label="spyglee">
  <g transform="translate(2,2) scale(0.082569)">
    <path d="M 165 18.472 C 152.441 20.322, 145.824 21.842, 135.642 25.215 C 94.183 38.946, 59.684 68.712, 40.251 107.521 C 30.050 127.892, 25.248 145.843, 24.313 167.099 C 23.267 190.888, 27.053 209.458, 36.827 228.481 C 45.121 244.624, 59.539 261.183, 73.623 270.742 C 86.438 279.439, 102.399 286.031, 114.216 287.508 L 119.862 288.213 113.436 275.357 C 106.174 260.828, 102.724 248.795, 101.044 232.144 C 100.470 226.448, 100 207.022, 100 188.974 L 100 156.159 106.750 155.501 C 127.138 153.513, 143.831 149.009, 160.500 140.999 C 170.865 136.018, 183.437 128.227, 190.683 122.294 L 194.867 118.868 200.228 123.235 C 217.869 137.604, 249.433 151.657, 268.440 153.604 C 274.644 154.240, 274.962 154.151, 284.634 149.081 C 290.060 146.236, 298.755 140.892, 303.957 137.205 C 314.909 129.440, 332.345 112.562, 339.695 102.613 C 355.196 81.627, 364.747 58.812, 367.285 36.708 C 368.294 27.919, 368.228 26.579, 366.644 23.637 C 362.828 16.552, 369.529 16.988, 266.346 17.110 C 197.656 17.191, 171.289 17.545, 165 18.472 M 288.726 199.141 C 288.336 235.516, 288.090 240.339, 286.239 248 C 282.662 262.800, 276.673 276.625, 268.696 288.500 C 263.073 296.869, 261.049 299.277, 251.174 309.339 C 238.003 322.759, 220.982 334.941, 202.146 344.427 L 194.848 348.101 186.674 343.916 C 167.712 334.208, 143.632 316.246, 132.228 303.302 L 126.500 296.802 113 297.274 C 97.248 297.825, 91.225 299.256, 78.050 305.575 C 52.909 317.633, 33.805 339.470, 23.641 367.766 C 17.704 384.296, 15.135 407.492, 18.517 414.033 C 21.817 420.415, 15.989 420.103, 125.771 419.772 C 225.116 419.471, 225.541 419.461, 236.265 417.196 C 287.896 406.289, 329.634 373.929, 351.438 327.899 C 376.536 274.917, 368.820 218.580, 331.626 183.249 C 327.571 179.398, 321.438 174.335, 317.996 171.997 C 311.017 167.258, 296.782 160.306, 292.166 159.383 L 289.160 158.782 288.726 199.141"
      fill="#06204F" fill-rule="evenodd"/>
  </g>
</svg>
