<svg width="251" height="92" viewBox="0 0 251 92" fill="none" xmlns="http://www.w3.org/2000/svg">
<path d="M20 21.7871C20 20.8001 20.7959 20 21.7778 20H44.2222C45.2041 20 46 20.8001 46 21.7871V24.6911C46 25.6781 45.2041 26.4782 44.2222 26.4782H21.7778C20.7959 26.4782 20 25.6781 20 24.6911V21.7871Z" fill="#4AB7EE"/>
<path d="M34.7778 33.459C35.7596 33.459 36.5556 34.2591 36.5556 35.2461V50.2129C36.5556 51.1999 35.7596 52 34.7778 52H31.2778C30.2959 52 29.5 51.1999 29.5 50.2129V35.2461C29.5 34.2591 30.2959 33.459 31.2778 33.459H34.7778Z" fill="#4AB7EE"/>
<path d="M58.5384 29.2151C58.2019 29.2151 58 28.9451 58 28.6751C58 28.405 58.2692 28.135 58.5384 28.135H70.4506C70.7871 28.135 70.989 28.405 70.989 28.6751C70.989 28.9451 70.7198 29.2151 70.4506 29.2151H65.1338V43.1898C65.1338 43.5274 64.8646 43.7974 64.5281 43.7974C64.1916 43.7974 63.9224 43.5274 63.9224 43.1898V29.2151H58.5384Z" fill="white"/>
<path d="M79.4016 28.6752C79.4016 28.3376 79.6708 28.0676 80.0073 28.0676C80.3438 28.0676 80.613 28.3376 80.613 28.6752V35.3587H91.3137V28.6752C91.3137 28.3376 91.5829 28.0676 91.9194 28.0676C92.2559 28.0676 92.5251 28.3376 92.5251 28.6752V43.2574C92.5251 43.595 92.2559 43.865 91.9194 43.865C91.5829 43.865 91.3137 43.595 91.3137 43.2574V36.4389H80.6803V43.2574C80.6803 43.595 80.4111 43.865 80.0746 43.865C79.7381 43.865 79.4689 43.595 79.4689 43.2574V28.6752H79.4016Z" fill="white"/>
<path d="M102.418 28.6752C102.418 28.3376 102.687 28.0676 103.024 28.0676C103.36 28.0676 103.63 28.3376 103.63 28.6752V43.2574C103.63 43.595 103.36 43.865 103.024 43.865C102.687 43.865 102.418 43.595 102.418 43.2574V28.6752Z" fill="white"/>
<path d="M113.523 28.6752C113.523 28.3376 113.792 28.0676 114.129 28.0676H114.33C114.6 28.0676 114.802 28.2026 114.936 28.4051L126.175 41.7047V28.6752C126.175 28.3376 126.445 28.1351 126.781 28.1351C127.118 28.1351 127.387 28.4051 127.387 28.6752V43.325C127.387 43.595 127.185 43.7975 126.916 43.7975H126.848C126.579 43.7975 126.445 43.6625 126.243 43.3925L114.802 29.8229V43.1899C114.802 43.5275 114.532 43.73 114.196 43.73C113.859 43.73 113.59 43.46 113.59 43.1899V28.6752H113.523Z" fill="white"/>
<path d="M137.078 28.6752C137.078 28.3376 137.347 28.0676 137.684 28.0676C138.02 28.0676 138.289 28.3376 138.289 28.6752V38.3967L148.788 28.2701C148.856 28.2026 149.057 28.0676 149.192 28.0676C149.529 28.0676 149.798 28.3376 149.798 28.6752C149.798 28.8102 149.73 28.9452 149.596 29.0802L143.27 35.0212L150.067 42.7849C150.202 42.9199 150.269 43.0549 150.269 43.1899C150.269 43.5275 149.932 43.7975 149.596 43.7975C149.394 43.7975 149.192 43.6625 149.125 43.595L142.395 35.8988L138.289 39.8144V43.2574C138.289 43.595 138.02 43.865 137.684 43.865C137.347 43.865 137.078 43.595 137.078 43.2574V28.6752Z" fill="white"/>
<path d="M157.941 41.7721C157.807 41.7046 157.672 41.5021 157.672 41.2996C157.672 40.962 157.941 40.692 158.278 40.692C158.412 40.692 158.614 40.7595 158.681 40.827C160.364 42.2447 161.979 42.8523 164.267 42.8523C166.758 42.8523 168.507 41.5696 168.507 39.7468V39.6793C168.507 38.0591 167.565 37.1139 163.796 36.3713C159.826 35.6287 158.21 34.346 158.21 31.9831V32.0506C158.21 29.7553 160.499 28 163.594 28C165.815 28 167.363 28.5401 168.911 29.6202C169.046 29.6878 169.18 29.8903 169.18 30.0928C169.18 30.4304 168.911 30.7004 168.575 30.7004C168.44 30.7004 168.305 30.6329 168.171 30.5654C166.69 29.5527 165.277 29.0802 163.594 29.0802C161.172 29.0802 159.556 30.3629 159.556 31.9831V32.0506C159.556 33.6709 160.431 34.6835 164.402 35.4262C168.238 36.1688 169.853 37.4515 169.853 39.6793V39.7468C169.853 42.2447 167.565 44 164.335 44C161.777 43.9325 159.826 43.1899 157.941 41.7721Z" fill="white"/>
<path d="M178.602 28.7426C178.602 28.405 178.871 28.135 179.208 28.135H184.659C188.294 28.135 190.851 29.8903 190.851 32.8607V32.9282C190.851 36.1687 187.822 37.8565 184.39 37.8565H179.881V43.1898C179.881 43.5274 179.612 43.7974 179.275 43.7974C178.939 43.7974 178.67 43.5274 178.67 43.1898V28.7426H178.602ZM184.39 36.8438C187.486 36.8438 189.572 35.3586 189.572 32.9957V32.9282C189.572 30.4978 187.553 29.1476 184.525 29.1476H179.814V36.7763H184.39V36.8438Z" fill="white"/>
<path d="M196.504 43.0549L203.638 28.6077C203.773 28.2701 204.042 28.0676 204.446 28.0676H204.513C204.917 28.0676 205.186 28.2701 205.321 28.6077L212.454 43.0549C212.522 43.1224 212.522 43.1899 212.522 43.325C212.522 43.595 212.252 43.865 211.916 43.865C211.647 43.865 211.445 43.6625 211.31 43.3925L209.359 39.4093H199.533L197.581 43.46C197.514 43.6625 197.312 43.865 197.043 43.865C196.706 43.865 196.437 43.595 196.437 43.325C196.437 43.1899 196.504 43.1224 196.504 43.0549ZM208.887 38.3292L204.513 29.3503L200.138 38.3292H208.887Z" fill="white"/>
<path d="M221.136 28.6752C221.136 28.3376 221.405 28.0676 221.742 28.0676H221.944C222.213 28.0676 222.415 28.2026 222.549 28.4051L233.789 41.7047V28.6752C233.789 28.3376 234.058 28.1351 234.394 28.1351C234.731 28.1351 235 28.4051 235 28.6752V43.325C235 43.595 234.798 43.7975 234.529 43.7975H234.462C234.192 43.7975 234.058 43.6625 233.856 43.3925L222.415 29.8229V43.1899C222.415 43.5275 222.146 43.73 221.809 43.73C221.473 43.73 221.203 43.46 221.203 43.1899V28.6752H221.136Z" fill="white"/>
<path d="M58.5384 29.2151C58.2019 29.2151 58 28.9451 58 28.6751C58 28.405 58.2692 28.135 58.5384 28.135H70.4506C70.7871 28.135 70.989 28.405 70.989 28.6751C70.989 28.9451 70.7198 29.2151 70.4506 29.2151H65.1338V43.1898C65.1338 43.5274 64.8646 43.7974 64.5281 43.7974C64.1916 43.7974 63.9224 43.5274 63.9224 43.1898V29.2151H58.5384Z" stroke="white" stroke-width="0.5"/>
<path d="M79.4016 28.6752C79.4016 28.3376 79.6708 28.0676 80.0073 28.0676C80.3438 28.0676 80.613 28.3376 80.613 28.6752V35.3587H91.3137V28.6752C91.3137 28.3376 91.5829 28.0676 91.9194 28.0676C92.2559 28.0676 92.5251 28.3376 92.5251 28.6752V43.2574C92.5251 43.595 92.2559 43.865 91.9194 43.865C91.5829 43.865 91.3137 43.595 91.3137 43.2574V36.4389H80.6803V43.2574C80.6803 43.595 80.4111 43.865 80.0746 43.865C79.7381 43.865 79.4689 43.595 79.4689 43.2574V28.6752H79.4016Z" stroke="white" stroke-width="0.5"/>
<path d="M102.418 28.6752C102.418 28.3376 102.687 28.0676 103.024 28.0676C103.36 28.0676 103.63 28.3376 103.63 28.6752V43.2574C103.63 43.595 103.36 43.865 103.024 43.865C102.687 43.865 102.418 43.595 102.418 43.2574V28.6752Z" stroke="white" stroke-width="0.5"/>
<path d="M113.523 28.6752C113.523 28.3376 113.792 28.0676 114.129 28.0676H114.33C114.6 28.0676 114.802 28.2026 114.936 28.4051L126.175 41.7047V28.6752C126.175 28.3376 126.445 28.1351 126.781 28.1351C127.118 28.1351 127.387 28.4051 127.387 28.6752V43.325C127.387 43.595 127.185 43.7975 126.916 43.7975H126.848C126.579 43.7975 126.445 43.6625 126.243 43.3925L114.802 29.8229V43.1899C114.802 43.5275 114.532 43.73 114.196 43.73C113.859 43.73 113.59 43.46 113.59 43.1899V28.6752H113.523Z" stroke="white" stroke-width="0.5"/>
<path d="M137.078 28.6752C137.078 28.3376 137.347 28.0676 137.684 28.0676C138.02 28.0676 138.289 28.3376 138.289 28.6752V38.3967L148.788 28.2701C148.856 28.2026 149.057 28.0676 149.192 28.0676C149.529 28.0676 149.798 28.3376 149.798 28.6752C149.798 28.8102 149.73 28.9452 149.596 29.0802L143.27 35.0212L150.067 42.7849C150.202 42.9199 150.269 43.0549 150.269 43.1899C150.269 43.5275 149.932 43.7975 149.596 43.7975C149.394 43.7975 149.192 43.6625 149.125 43.595L142.395 35.8988L138.289 39.8144V43.2574C138.289 43.595 138.02 43.865 137.684 43.865C137.347 43.865 137.078 43.595 137.078 43.2574V28.6752Z" stroke="white" stroke-width="0.5"/>
<path d="M157.941 41.7721C157.807 41.7046 157.672 41.5021 157.672 41.2996C157.672 40.962 157.941 40.692 158.278 40.692C158.412 40.692 158.614 40.7595 158.681 40.827C160.364 42.2447 161.979 42.8523 164.267 42.8523C166.758 42.8523 168.507 41.5696 168.507 39.7468V39.6793C168.507 38.0591 167.565 37.1139 163.796 36.3713C159.826 35.6287 158.21 34.346 158.21 31.9831V32.0506C158.21 29.7553 160.499 28 163.594 28C165.815 28 167.363 28.5401 168.911 29.6202C169.046 29.6878 169.18 29.8903 169.18 30.0928C169.18 30.4304 168.911 30.7004 168.575 30.7004C168.44 30.7004 168.305 30.6329 168.171 30.5654C166.69 29.5527 165.277 29.0802 163.594 29.0802C161.172 29.0802 159.556 30.3629 159.556 31.9831V32.0506C159.556 33.6709 160.431 34.6835 164.402 35.4262C168.238 36.1688 169.853 37.4515 169.853 39.6793V39.7468C169.853 42.2447 167.565 44 164.335 44C161.777 43.9325 159.826 43.1899 157.941 41.7721Z" stroke="white" stroke-width="0.5"/>
<path d="M178.602 28.7426C178.602 28.405 178.871 28.135 179.208 28.135H184.659C188.294 28.135 190.851 29.8903 190.851 32.8607V32.9282C190.851 36.1687 187.822 37.8565 184.39 37.8565H179.881V43.1898C179.881 43.5274 179.612 43.7974 179.275 43.7974C178.939 43.7974 178.67 43.5274 178.67 43.1898V28.7426H178.602ZM184.39 36.8438C187.486 36.8438 189.572 35.3586 189.572 32.9957V32.9282C189.572 30.4978 187.553 29.1476 184.525 29.1476H179.814V36.7763H184.39V36.8438Z" stroke="white" stroke-width="0.5"/>
<path d="M196.504 43.0549L203.638 28.6077C203.773 28.2701 204.042 28.0676 204.446 28.0676H204.513C204.917 28.0676 205.186 28.2701 205.321 28.6077L212.454 43.0549C212.522 43.1224 212.522 43.1899 212.522 43.325C212.522 43.595 212.252 43.865 211.916 43.865C211.647 43.865 211.445 43.6625 211.31 43.3925L209.359 39.4093H199.533L197.581 43.46C197.514 43.6625 197.312 43.865 197.043 43.865C196.706 43.865 196.437 43.595 196.437 43.325C196.437 43.1899 196.504 43.1224 196.504 43.0549ZM208.887 38.3292L204.513 29.3503L200.138 38.3292H208.887Z" stroke="white" stroke-width="0.5"/>
<path d="M221.136 28.6752C221.136 28.3376 221.405 28.0676 221.742 28.0676H221.944C222.213 28.0676 222.415 28.2026 222.549 28.4051L233.789 41.7047V28.6752C233.789 28.3376 234.058 28.1351 234.394 28.1351C234.731 28.1351 235 28.4051 235 28.6752V43.325C235 43.595 234.798 43.7975 234.529 43.7975H234.462C234.192 43.7975 234.058 43.6625 233.856 43.3925L222.415 29.8229V43.1899C222.415 43.5275 222.146 43.73 221.809 43.73C221.473 43.73 221.203 43.46 221.203 43.1899V28.6752H221.136Z" stroke="white" stroke-width="0.5"/>
<rect x="188.568" y="56" width="46" height="20" rx="10" fill="#D3175B"/>
<path d="M200.256 69.1967H197.494V62.8047H200.183C201.377 62.8047 202.088 63.4116 202.088 64.3994C202.088 65.0771 201.607 65.6663 200.976 65.7637V65.8434C201.79 65.9055 202.383 66.5433 202.383 67.3673C202.383 68.488 201.568 69.1967 200.256 69.1967ZM198.781 63.8279V65.4536H199.749C200.443 65.4536 200.823 65.1568 200.823 64.643C200.823 64.1336 200.469 63.8279 199.855 63.8279H198.781ZM198.781 68.1735H199.928C200.669 68.1735 201.07 67.8501 201.07 67.2521C201.07 66.6674 200.656 66.3573 199.898 66.3573H198.781V68.1735Z" fill="white"/>
<path d="M209.73 68.0539V69.1967H205.656V62.8047H209.73V63.9475H206.943V65.4403H209.572V66.499H206.943V68.0539H209.73Z" fill="white"/>
<path d="M216.136 69.1967H214.849V63.9475H213.003V62.8047H217.981V63.9475H216.136V69.1967Z" fill="white"/>
<path d="M224.25 69.1967L223.786 67.6729H221.625L221.152 69.1967H219.86L221.996 62.8047H223.509L225.644 69.1967H224.25ZM222.673 64.1336L221.902 66.6408H223.513L222.75 64.1336H222.673Z" fill="white"/>
</svg>
