<svg xmlns="http://www.w3.org/2000/svg" viewBox="0.0 0.0 89.0 90.0" xml:space="preserve" style="fill-rule:evenodd;clip-rule:evenodd;stroke-linejoin:round;stroke-miterlimit:2" width="314.39099675674373" height="318.07526624998684"><path d="M52.509 3a10 10 0 0 1 7.474 3.356l22.675 25.509c6.253 7.035 2.343 18.201-6.933 19.798L21.5 61l6.8-7.687a8 8 0 0 0-.013-10.615L7.794 19.644C2.062 13.195 6.64 3 15.268 3z" style="fill:url(#a);fill-rule:nonzero" transform="translate(-5.249 -3)"/><path d="M15.268 93C6.64 93 2.062 82.805 7.794 76.356l51.3-57.712a10 10 0 0 0 0-13.288L57 3l34.095 38.356a10.003 10.003 0 0 1 0 13.288l-31.112 35A10 10 0 0 1 52.509 93z" style="fill:url(#b);fill-rule:nonzero" transform="translate(-5.249 -3)"/><path d="M15.268 93C6.64 93 2.062 82.805 7.794 76.356l51.3-57.712a10 10 0 0 0 0-13.288L57 3l34.095 38.356a10.003 10.003 0 0 1 0 13.288l-31.112 35A10 10 0 0 1 52.509 93z" style="fill:url(#c);fill-rule:nonzero" transform="translate(-5.249 -3)"/><path d="M38.361 93c-5.177 0-7.924-6.117-4.484-9.986l41.218-46.37a10.003 10.003 0 0 0 0-13.288L71 18.75l20.095 22.606a10.003 10.003 0 0 1 0 13.288l-31.112 35A10 10 0 0 1 52.509 93z" style="fill:url(#d);fill-rule:nonzero" transform="translate(-5.249 -3)"/><defs><linearGradient id="a" x1="0" y1="0" x2="1" y2="0" gradientUnits="userSpaceOnUse" gradientTransform="matrix(-34 -34 34 -34 48 31.5)"><stop offset="0" style="stop-color:#102784;stop-opacity:1"/><stop offset=".27" style="stop-color:#1b44b1;stop-opacity:1"/><stop offset="1" style="stop-color:#2764e7;stop-opacity:1"/></linearGradient><linearGradient id="b" x1="0" y1="0" x2="1" y2="0" gradientUnits="userSpaceOnUse" gradientTransform="rotate(134.3 32.989 28.6)scale(93)"><stop offset="0" style="stop-color:#0fafff;stop-opacity:1"/><stop offset=".18" style="stop-color:#4894fe;stop-opacity:1"/><stop offset="1" style="stop-color:#2764e7;stop-opacity:1"/></linearGradient><linearGradient id="c" x1="0" y1="0" x2="1" y2="0" gradientUnits="userSpaceOnUse" gradientTransform="matrix(10 11.5 -11.5 10 28.5 72)"><stop offset="0" style="stop-color:#2764e7;stop-opacity:0"/><stop offset="1" style="stop-color:#2052cb;stop-opacity:1"/></linearGradient><linearGradient id="d" x1="0" y1="0" x2="1" y2="0" gradientUnits="userSpaceOnUse" gradientTransform="matrix(-46 52 -52 -46 89 38.5)"><stop offset="0" style="stop-color:#6ce0ff;stop-opacity:1"/><stop offset=".21" style="stop-color:#66c0ff;stop-opacity:1"/><stop offset="1" style="stop-color:#58aafe;stop-opacity:1"/></linearGradient></defs></svg>