<svg width="219" height="24" fill="none" xmlns="http://www.w3.org/2000/svg"><g clip-path="url(#a)"><path d="M111.044 22.607V24h-5.83v-2.325a.555.555 0 0 0-.559-.554h-.257v-2.398h7.456v2.398h-4.568c1.214 0 2.699.32 3.758 1.486ZM99.495.81h16.253c1.169 1.053 1.572 2.539 1.572 3.752V0h2.403v7.447h-2.403v-.258a.557.557 0 0 0-.558-.553h-2.946a2.773 2.773 0 0 0-2.772 2.767v2.942c0 .305.252.553.558.553h.257v2.398h-7.456v-2.398h4.568c-1.214 0-2.699-.403-3.757-1.573V9.398a2.776 2.776 0 0 0-2.772-2.767h-1.927c-1.17-1.058-1.573-2.539-1.573-3.752v4.563h-2.403V0h2.403v.257c0 .306.252.559.558.559L99.495.81Z" fill="#ED1C24"/><path d="M151.019.81V24h14.777v-5.267h-8.879v-3.432h7.884V9.835h-7.884V6.112h8.578V.81h-14.476Zm-12.388 0v9.025h-7.155V.811h-6.063V24h6.063v-8.7h7.155v8.7h6.063V.81h-6.063Zm38.544 11.098V6.112h4.242c3.379 0 3.214 5.796 0 5.796h-4.242Zm9.141 3.874C192.146 11.84 190.524.81 181.413.81h-10.17V24h5.932v-6.826h3.082L184.233 24h6.626v-.86l-4.539-7.354-.004-.004Zm-105.175.335 2.582-6.02 2.65 6.02h-5.232Zm-72.18 0 2.583-6.02 2.65 6.02H8.961ZM23.155 24v-.85L12.82.81h-2.519L0 23.15V24h5.723l1.34-2.878h9.03L17.431 24h5.723ZM26.845.81V24h14.378v-5.335h-8.412V.811H26.845Zm20.587 0h-2.18V24h6.044V13.694l4.889 5.15h1.485l4.922-5.15V24h6.044V.81h-2.112l-9.626 10.044L47.432.812ZM95.335 24v-.85L85 .81h-2.52l-10.3 22.336v.85h5.723l1.34-2.88h9.024l1.34 2.88h5.723l.005.004ZM197.024.81h-2.179V24h6.043V13.694l4.889 5.15h1.485l4.922-5.15V24h6.044V.81h-2.111l-9.627 10.044L197.024.812Z" fill="#034EA2"/></g><defs><clipPath id="a"><path fill="#fff" d="M0 0h218.228v24H0z"/></clipPath></defs></svg>
